<?xml version="1.0" encoding="utf-8"?>
<svg viewBox="169.506 107.9221 78.08 19.1" width="78.08" height="19.1" xmlns="http://www.w3.org/2000/svg">
  <defs>
    <style type="text/css">
		.st0{fill:#F3D179;}
		.st1{fill:#282829;}
	</style>
  </defs>
  <g transform="matrix(1, 0, 0, 1, -211.94401550292972, -184.9978942871094)">
    <defs>
      <rect id="SVGID_1_" x="381.44" y="292.92" width="78.09" height="19.11"/>
    </defs>
    <clipPath id="SVGID_00000062870512411143343150000017041193108408801189_">
      <rect x="381.44" y="292.92" width="78.09" height="19.11" style="overflow: visible;"/>
    </clipPath>
    <path style="clip-path:url(#SVGID_00000062870512411143343150000017041193108408801189_);fill:#2E2D2C;" d="M383.38,292.92 c-1.07,0-1.93,0.87-1.93,1.93v15.24c0,1.07,0.87,1.93,1.93,1.93h74.22c1.07,0,1.93-0.87,1.93-1.93v-15.24 c0-1.07-0.87-1.93-1.93-1.93H383.38z"/>
    <path style="clip-path:url(#SVGID_00000062870512411143343150000017041193108408801189_);fill:#489FD3;" d="M447.76,298.22 c0.19,0,0.31,0.08,0.39,0.25l1.5,3.68c0.04,0.1,0.13,0.08,0.13-0.03v-3.57c0-0.22,0.12-0.33,0.33-0.33h1.24 c0.22,0,0.33,0.11,0.33,0.33v7.07c0,0.21-0.11,0.33-0.33,0.33h-1.62c-0.19,0-0.31-0.08-0.39-0.25l-1.5-3.68 c-0.04-0.1-0.13-0.08-0.13,0.03v3.57c0,0.21-0.11,0.33-0.33,0.33h-1.24c-0.21,0-0.33-0.12-0.33-0.33v-7.07 c0-0.22,0.12-0.33,0.33-0.33H447.76z M444.29,298.22c0.22,0,0.33,0.11,0.33,0.33v1.24c0,0.21-0.11,0.33-0.33,0.33h-2.67 c-0.21,0-0.33,0.11-0.33,0.33v0.35c0,0.21,0.12,0.33,0.33,0.33h1.71c0.22,0,0.33,0.11,0.33,0.33v1.24c0,0.21-0.11,0.33-0.33,0.33 h-1.71c-0.21,0-0.33,0.11-0.33,0.33v0.35c0,0.21,0.12,0.33,0.33,0.33h2.67c0.22,0,0.33,0.11,0.33,0.33v1.24 c0,0.22-0.11,0.33-0.33,0.33h-4.64c-0.21,0-0.33-0.12-0.33-0.33v-7.07c0-0.22,0.12-0.33,0.33-0.33H444.29z M435.27,300.12 c0.53,0,0.8,0.07,0.8,0.75c0,0.68-0.27,0.75-0.8,0.75h-0.56c-0.2,0-0.34-0.14-0.34-0.34v-0.82c0-0.2,0.14-0.34,0.34-0.34H435.27z M437.09,303.18c-0.02-0.05-0.01-0.11,0.03-0.14c0.58-0.42,0.84-1.14,0.84-2.16c0-1.81-0.8-2.65-2.76-2.65h-2.42 c-0.2,0-0.34,0.14-0.34,0.34v7.04c0,0.2,0.14,0.34,0.34,0.34h1.24c0.2,0,0.34-0.14,0.34-0.34v-1.74c0-0.2,0.14-0.34,0.34-0.34h0.44 c0.03,0,0.07,0.02,0.09,0.05l1.15,2.22c0.04,0.1,0.14,0.15,0.25,0.15h1.26c0.34,0,0.52-0.31,0.36-0.6L437.09,303.18z M425.86,298.22c-0.21,0-0.33,0.11-0.33,0.33v4.91c0,0.73,0.15,2.68,2.77,2.68c2.62,0,2.77-1.95,2.77-2.68v-4.91 c0-0.22-0.11-0.33-0.33-0.33h-1.24c-0.21,0-0.33,0.11-0.33,0.33v4.33c0,0.85-0.05,1.37-0.87,1.37c-0.82,0-0.87-0.52-0.87-1.37 v-4.33c0-0.22-0.11-0.33-0.33-0.33H425.86z M424.09,298.22c0.22,0,0.33,0.11,0.33,0.33v1.24c0,0.21-0.11,0.33-0.33,0.33h-2.67 c-0.21,0-0.33,0.11-0.33,0.33v0.35c0,0.21,0.12,0.33,0.33,0.33h1.71c0.22,0,0.33,0.11,0.33,0.33v1.24c0,0.21-0.11,0.33-0.33,0.33 h-1.71c-0.21,0-0.33,0.11-0.33,0.33v0.35c0,0.21,0.12,0.33,0.33,0.33h2.67c0.22,0,0.33,0.11,0.33,0.33v1.24 c0,0.22-0.11,0.33-0.33,0.33h-4.64c-0.21,0-0.33-0.12-0.33-0.33v-7.07c0-0.22,0.12-0.33,0.33-0.33H424.09z M414.81,301.62 c-0.21,0-0.33-0.12-0.33-0.33v-0.84c0-0.22,0.12-0.33,0.33-0.33h0.6c0.53,0,0.79,0.07,0.79,0.75c0,0.68-0.26,0.75-0.79,0.75H414.81 z M412.91,298.22c-0.22,0.01-0.33,0.12-0.33,0.34v7.05c0,0.21,0.12,0.33,0.33,0.33h1.24c0.22,0,0.33-0.11,0.33-0.33v-1.77 c0-0.22,0.12-0.33,0.33-0.33h0.53c1.96,0,2.76-0.84,2.76-2.65c0-1.81-0.8-2.65-2.76-2.65H412.91z M411.05,300.69 c0.2-0.04,0.3-0.17,0.29-0.36c-0.07-0.79-0.6-2.27-2.87-2.27c-2.47,0-2.67,1.95-2.66,2.29c0,2.54,3.32,2.33,3.53,3.27 c0.07,0.3-0.33,0.62-0.87,0.62c-0.52,0-0.93-0.31-0.97-0.84c-0.02-0.23-0.14-0.33-0.36-0.29l-1.25,0.28 c-0.2,0.04-0.3,0.17-0.29,0.36c0.05,0.86,0.55,2.39,2.87,2.39c2.62,0,2.99-1.95,2.99-2.29c0-2.54-3.49-2.52-3.64-3.38 c-0.04-0.25,0.22-0.51,0.65-0.51c0.52,0,0.88,0.29,0.96,0.74c0.03,0.22,0.14,0.32,0.36,0.28L411.05,300.69z M399.02,300.9 c0-0.53-0.08-0.79-0.81-0.79c-0.73,0-0.81,0.26-0.81,0.79v1.2c0,0.21,0.12,0.33,0.33,0.33h0.95c0.22-0.01,0.33-0.12,0.33-0.34 V300.9z M400.91,305.58c0,0.24-0.11,0.38-0.33,0.38h-1.24c-0.21,0-0.33-0.11-0.33-0.33v-0.96c0-0.22-0.11-0.33-0.33-0.33h-0.95 c-0.21,0-0.33,0.11-0.33,0.33v0.96c0,0.22-0.11,0.33-0.33,0.33h-1.24c-0.21,0-0.33-0.13-0.33-0.38v-4.68c0-1.39,0.22-2.87,2.7-2.87 s2.71,1.48,2.71,2.87V305.58z M388.72,303.47c0,0.73,0.15,2.68,2.77,2.68c2.62,0,2.77-1.95,2.77-2.68v-1.49 c0-0.22-0.11-0.33-0.33-0.33h-2.21c-0.21,0-0.33,0.11-0.33,0.33v0.88c0,0.21,0.12,0.33,0.33,0.33h0.64c0,0.54-0.06,1.06-0.87,1.06 c-0.82,0-0.87-0.52-0.87-1.37v-1.59c0-0.85,0.05-1.37,0.87-1.37c0.63,0,0.82,0.31,0.86,0.84c0.02,0.23,0.14,0.33,0.36,0.29 l1.25-0.28c0.2-0.04,0.3-0.16,0.29-0.36c-0.06-0.86-0.44-2.39-2.76-2.39c-2.62,0-2.77,1.95-2.77,2.68V303.47z"/>
  </g>
</svg>